# xmcd CD database file
#
# Track frame offsets:
#	150
#	20182
#	35822
#	52702
#	87272
#	104640
#	117587
#	130547
#	150547
#	169645
#	181757
#	196542
#	210077
#	225447
#	237117
#
# Disc length: 3394 seconds
#
# Revision: 6
# Processed by: cddbd v1.5.2PL0 Copyright (c) Steve Scherf et al.
# Submitted via: CDex 1.51
#
DISCID=b10d400f
DTITLE=William Clarke - Tip Of The Top
DYEAR=2000
DGENRE=Blues-Electric
TTITLE0=Drinkin' Beer
TTITLE1=Just A Dream
TTITLE2=Take A Walk With Me
TTITLE3=Tribute To George Smith
TTITLE4=Charlie's Blues
TTITLE5=Goin' Steady
TTITLE6=Hot Dog And A Beer
TTITLE7=Chromatic Jump
TTITLE8=Hard Times
TTITLE9=Blowin' The Family Jewels
TTITLE10=Drinkin' Straight Whiskey
TTITLE11=Party Party
TTITLE12=Got My Brand On You
TTITLE13=My Dog Don't Bark
TTITLE14=My Wife Got Mad
EXTD=YEAR: 2000
EXTT0=
EXTT1=
EXTT2=
EXTT3=
EXTT4=
EXTT5=
EXTT6=
EXTT7=
EXTT8=
EXTT9=
EXTT10=
EXTT11=
EXTT12=
EXTT13=
EXTT14=
PLAYORDER=
